PathFileType	4	(X/Y/Z)	/Users/itak/Documents/Research/Walk-IL/dataset/trc/00212_00009.trc
DataRate	CameraRate	NumFrames	NumMarkers	Units	OrigDataRate	OrigDataStartFrame	OrigNumFrames
100.000000	100.000000	4	53	mm	100.000000	0	538
Frame#	Time	RPSI			LPSI			L3			STRN			T10			C7			CLAV			RBAK			LBAK			LSHO			LUPA			LAEL			LAOL			LWTS			LWPS			LFRA			LIFD			LHPS			RSHO			RUPA			RAEL			RAOL			RWTS			RWPS			RFRA			RIFD			RHTS			RHPS			RBHD			LFHD			RFHD			LBHD			LHIP			RHIP			RASI			LASI			LKNE			LTHI			LANK			LTIP			LTOE			LMT1			LMT5			LHEE			RKNE			RTHI			RANK			RTIP			RTOE			RMT1			RMT5			RHEE			LHTS			
		X1	Y1	Z1	X2	Y2	Z2	X3	Y3	Z3	X4	Y4	Z4	X5	Y5	Z5	X6	Y6	Z6	X7	Y7	Z7	X8	Y8	Z8	X9	Y9	Z9	X10	Y10	Z10	X11	Y11	Z11	X12	Y12	Z12	X13	Y13	Z13	X14	Y14	Z14	X15	Y15	Z15	X16	Y16	Z16	X17	Y17	Z17	X18	Y18	Z18	X19	Y19	Z19	X20	Y20	Z20	X21	Y21	Z21	X22	Y22	Z22	X23	Y23	Z23	X24	Y24	Z24	X25	Y25	Z25	X26	Y26	Z26	X27	Y27	Z27	X28	Y28	Z28	X29	Y29	Z29	X30	Y30	Z30	X31	Y31	Z31	X32	Y32	Z32	X33	Y33	Z33	X34	Y34	Z34	X35	Y35	Z35	X36	Y36	Z36	X37	Y37	Z37	X38	Y38	Z38	X39	Y39	Z39	X40	Y40	Z40	X41	Y41	Z41	X42	Y42	Z42	X43	Y43	Z43	X44	Y44	Z44	X45	Y45	Z45	X46	Y46	Z46	X47	Y47	Z47	X48	Y48	Z48	X49	Y49	Z49	X50	Y50	Z50	X51	Y51	Z51	X52	Y52	Z52	X53	Y53	Z53	

1	0	-1962.903686523438	1050.436279296875	-327.8648376464844	-1945.7548828125	1055.252075195312	-446.8169860839844	-1958.268798828125	1135.249389648438	-403.7703857421875	-1721.585693359375	1321.275756835938	-383.0071411132812	-1971.389770507812	1262.78466796875	-399.3265380859375	-1909.079711914062	1524.0400390625	-398.1056518554688	-1746.054443359375	1438.439086914062	-384.5650634765625	-1995.468994140625	1387.623046875	-332.1091003417969	-1922.338134765625	1485.505981445312	-508.87890625	-1830.0908203125	1487.842041015625	-559.5128173828125	-1851.676025390625	1367.178344726562	-636.6631469726562	-1823.733642578125	1156.766357421875	-656.334716796875	-1900.243896484375	1138.994262695312	-617.4140625	-1730.994384765625	928.57275390625	-584.3953247070312	-1751.24169921875	908.1880493164062	-664.9680786132812	-1797.286254882812	1049.99462890625	-665.6460571289062	-1723.364501953125	728.5999145507812	-590.4816284179688	-1732.776000976562	820.4541015625	-657.9679565429688	-1868.067749023438	1484.040405273438	-225.0985260009766	-1894.077758789062	1419.012939453125	-160.6782531738281	-1910.634643554688	1137.76123046875	-123.6455307006836	-1943.5556640625	1131.873901367188	-212.7965698242188	-1770.550415039062	925.0950927734375	-169.8793182373047	-1823.838989257812	909.3910522460938	-104.9652404785156	-1883.204956054688	1069.430419921875	-111.232292175293	-1753.01171875	728.6739501953125	-170.6932220458984	-1731.018188476562	803.1577758789062	-153.3675994873047	-1785.1845703125	802.829833984375	-104.203125	-1882.115600585938	1668.608276367188	-347.0515747070312	-1677.509155273438	1734.910278320312	-421.2738037109375	-1688.144897460938	1733.311889648438	-322.0358276367188	-1824.457397460938	1681.431762695312	-474.0884704589844	-1827.0439453125	994.5744018554688	-573.0362548828125	-1880.166748046875	1015.210083007812	-210.4535675048828	-1779.187255859375	1059.072998046875	-235.6743011474609	-1732.455322265625	1039.867797851562	-512.743408203125	-1793.275634765625	510.6386108398438	-516.4843139648438	-1790.982421875	654.29736328125	-550.981689453125	-1875.995849609375	41.46787643432617	-502.9154052734375	-1842.84619140625	287.7236633300781	-522.482421875	-1665.646362304688	47.37986755371094	-436.3235168457031	-1735.583618164062	41.25820922851562	-396.2100830078125	-1747.798217773438	41.90368270874023	-513.234619140625	-1941.067138671875	49.70168685913086	-454.0269775390625	-1822.396728515625	522.3592529296875	-237.8392333984375	-1812.424072265625	789.3034057617188	-194.3486175537109	-1912.747802734375	41.64624404907227	-266.6084289550781	-1817.7705078125	402.8106689453125	-254.6106414794922	-1697.866088867188	48.63544082641602	-275.2517395019531	-1746.385375976562	45.33937835693359	-326.7621765136719	-1808.181640625	42.34988021850586	-223.2580871582031	-1964.766967773438	40.20828247070312	-334.108642578125	-1692.286743164062	826.1829833984375	-602.5908813476562	
2	0.01	-1962.877563476562	1050.4482421875	-327.905029296875	-1945.705810546875	1055.261352539062	-446.8548889160156	-1958.220703125	1135.2666015625	-403.8122863769531	-1721.551635742188	1321.268676757812	-382.9949340820312	-1971.323486328125	1262.784423828125	-399.37646484375	-1908.999755859375	1524.047241210938	-398.1946411132812	-1746.010498046875	1438.432373046875	-384.5703430175781	-1995.43017578125	1387.654296875	-332.1491088867188	-1922.234252929688	1485.500366210938	-508.9415893554688	-1829.974609375	1487.839599609375	-559.5307006835938	-1851.548828125	1367.179321289062	-636.7073364257812	-1823.677368164062	1156.760986328125	-656.3660888671875	-1900.122192382812	1139.003295898438	-617.458740234375	-1730.97607421875	928.5684814453125	-584.3956909179688	-1751.116577148438	908.179443359375	-664.9431762695312	-1797.181396484375	1049.99267578125	-665.6328735351562	-1723.328002929688	728.5980834960938	-590.4489135742188	-1732.7333984375	820.454833984375	-657.95849609375	-1868.018676757812	1484.065307617188	-225.130615234375	-1894.062377929688	1419.044921875	-160.7068786621094	-1910.64794921875	1137.798950195312	-123.6598663330078	-1943.538818359375	1131.894287109375	-212.8084106445312	-1770.571044921875	925.1041259765625	-169.8675842285156	-1823.885620117188	909.4337158203125	-104.9477310180664	-1883.245361328125	1069.447998046875	-111.2252349853516	-1753.057861328125	728.7041015625	-170.6355743408203	-1731.080078125	803.18212890625	-153.3136901855469	-1785.24853515625	802.8449096679688	-104.1848831176758	-1882.061157226562	1668.60302734375	-347.0707397460938	-1677.40625	1734.903564453125	-421.264892578125	-1688.096557617188	1733.305541992188	-322.0242614746094	-1824.370971679688	1681.441772460938	-474.1114196777344	-1827.010620117188	994.5758056640625	-573.072998046875	-1880.1201171875	1015.180969238281	-210.4713745117188	-1779.170654296875	1059.051879882812	-235.6959533691406	-1732.399658203125	1039.85595703125	-512.7639770507812	-1793.24072265625	510.6278686523438	-516.494873046875	-1790.921997070312	654.281982421875	-550.9874877929688	-1875.994262695312	41.46249389648438	-502.9157409667969	-1842.82568359375	287.7179565429688	-522.4832763671875	-1665.6455078125	47.37906646728516	-436.3239440917969	-1735.58251953125	41.25800323486328	-396.2126159667969	-1747.791015625	41.89906692504883	-513.2366333007812	-1941.063232421875	49.69980621337891	-454.029541015625	-1822.397216796875	522.3623046875	-237.8427276611328	-1812.456909179688	789.3273315429688	-194.3190307617188	-1912.74365234375	41.64961242675781	-266.6146545410156	-1817.7705078125	402.8119201660156	-254.6104583740234	-1697.86279296875	48.63682556152344	-275.2463073730469	-1746.377197265625	45.34125518798828	-326.7615966796875	-1808.181396484375	42.34445190429688	-223.2619476318359	-1964.76220703125	40.21200180053711	-334.1167907714844	-1692.143432617188	826.1517944335938	-602.4965209960938	
3	0.02	-1962.844848632812	1050.462890625	-327.9581298828125	-1945.639282226562	1055.272705078125	-446.9039916992188	-1958.158935546875	1135.289184570312	-403.8677673339844	-1721.505615234375	1321.260131835938	-382.9779052734375	-1971.236328125	1262.78271484375	-399.4414978027344	-1908.89453125	1524.055908203125	-398.3035583496094	-1745.950805664062	1438.424194335938	-384.5765686035156	-1995.375610351562	1387.695190429688	-332.2013549804688	-1922.094360351562	1485.496948242188	-509.0253295898438	-1829.822387695312	1487.836059570312	-559.5533447265625	-1851.383666992188	1367.179565429688	-636.7626953125	-1823.593505859375	1156.753173828125	-656.4039306640625	-1899.965576171875	1139.013549804688	-617.5166625976562	-1730.953369140625	928.5615844726562	-584.3955688476562	-1750.955322265625	908.168212890625	-664.9089965820312	-1797.043212890625	1049.988891601562	-665.614990234375	-1723.264892578125	728.5938110351562	-590.4010620117188	-1732.663452148438	820.4534912109375	-657.9400634765625	-1867.951416015625	1484.09716796875	-225.1735076904297	-1894.042114257812	1419.086547851562	-160.7433776855469	-1910.66455078125	1137.846801757812	-123.6767349243164	-1943.5166015625	1131.921997070312	-212.8226623535156	-1770.59716796875	925.115966796875	-169.8516845703125	-1823.947265625	909.4874877929688	-104.9215469360352	-1883.295166015625	1069.475708007812	-111.2128753662109	-1753.116821289062	728.742431640625	-170.5609588623047	-1731.157470703125	803.216796875	-153.2460632324219	-1785.331665039062	802.8649291992188	-104.1603851318359	-1881.988159179688	1668.59521484375	-347.0974426269531	-1677.270874023438	1734.893310546875	-421.2503662109375	-1688.030517578125	1733.296630859375	-322.0080261230469	-1824.261596679688	1681.4560546875	-474.1419372558594	-1826.96484375	994.5772094726562	-573.1207275390625	-1880.057006835938	1015.142211914062	-210.4940490722656	-1779.15087890625	1059.02392578125	-235.7211608886719	-1732.331909179688	1039.83740234375	-512.788330078125	-1793.194946289062	510.6139831542969	-516.509033203125	-1790.844848632812	654.2626953125	-550.9962768554688	-1875.992797851562	41.45589065551758	-502.9162292480469	-1842.798950195312	287.7106018066406	-522.4849243164062	-1665.64404296875	47.37749862670898	-436.3245239257812	-1735.581420898438	41.25748443603516	-396.2156982421875	-1747.78369140625	41.89277267456055	-513.239013671875	-1941.058959960938	49.69783782958984	-454.0325927734375	-1822.398681640625	522.3662109375	-237.8457641601562	-1812.499755859375	789.3585205078125	-194.2808380126953	-1912.739013671875	41.65465545654297	-266.6231689453125	-1817.769775390625	402.8135070800781	-254.6095581054688	-1697.858764648438	48.63845062255859	-275.2396240234375	-1746.367797851562	45.34310531616211	-326.7608642578125	-1808.180419921875	42.33602905273438	-223.2685546875	-1964.755981445312	40.21695327758789	-334.1274108886719	-1691.966186523438	826.11865234375	-602.3707275390625	
4	0.03	-1962.80712890625	1050.4794921875	-328.0232238769531	-1945.5556640625	1055.285888671875	-446.9627380371094	-1958.0859375	1135.316650390625	-403.9356384277344	-1721.447875976562	1321.250732421875	-382.9558715820312	-1971.130981445312	1262.779174804688	-399.5196228027344	-1908.766845703125	1524.065307617188	-398.4252319335938	-1745.8759765625	1438.415283203125	-384.5831909179688	-1995.30419921875	1387.744506835938	-332.2643432617188	-1921.92041015625	1485.498046875	-509.1282348632812	-1829.638305664062	1487.8310546875	-559.579833984375	-1851.185424804688	1367.1787109375	-636.8262329101562	-1823.479125976562	1156.742797851562	-656.4454956054688	-1899.779663085938	1139.023803710938	-617.5856323242188	-1730.927734375	928.55126953125	-584.39453125	-1750.763549804688	908.15478515625	-664.86572265625	-1796.875	1049.982788085938	-665.592529296875	-1723.168701171875	728.5863647460938	-590.3367309570312	-1732.559814453125	820.448974609375	-657.90966796875	-1867.867065429688	1484.134643554688	-225.2262573242188	-1894.017211914062	1419.13671875	-160.7861175537109	-1910.68359375	1137.902709960938	-123.6945648193359	-1943.489624023438	1131.95703125	-212.8381958007812	-1770.628051757812	925.1301879882812	-169.8314514160156	-1824.022827148438	909.5498046875	-104.885856628418	-1883.351928710938	1069.514404296875	-111.1942672729492	-1753.18603515625	728.7872924804688	-170.4720306396484	-1731.245971679688	803.2620849609375	-153.1683502197266	-1785.4306640625	802.8895263671875	-104.1298980712891	-1881.897583007812	1668.58447265625	-347.1316223144531	-1677.106567382812	1734.878662109375	-421.2289733886719	-1687.947265625	1733.28466796875	-321.9869689941406	-1824.133422851562	1681.474853515625	-474.1793212890625	-1826.90625	994.5783081054688	-573.1777954101562	-1879.978881835938	1015.0947265625	-210.5206756591797	-1779.129516601562	1058.989624023438	-235.7480773925781	-1732.256713867188	1039.811645507812	-512.8141479492188	-1793.139526367188	510.5975036621094	-516.5264282226562	-1790.754272460938	654.2405395507812	-551.008544921875	-1875.991333007812	41.44845581054688	-502.9168395996094	-1842.766967773438	287.701904296875	-522.487548828125	-1665.641845703125	47.37496948242188	-436.3252563476562	-1735.58056640625	41.25662612915039	-396.2191467285156	-1747.777099609375	41.88492584228516	-513.2415771484375	-1941.054809570312	49.69607162475586	-454.0358581542969	-1822.40185546875	522.3707275390625	-237.8473358154297	-1812.550170898438	789.395263671875	-194.2365570068359	-1912.734375	41.66152572631836	-266.6340637207031	-1817.767700195312	402.8153381347656	-254.6075592041016	-1697.854248046875	48.64018249511719	-275.2320556640625	-1746.358276367188	45.34466171264648	-326.7600708007812	-1808.178466796875	42.32424545288086	-223.2783813476562	-1964.748657226562	40.22306060791016	-334.1402587890625	-1691.764892578125	826.0885009765625	-602.216552734375	
